<svg xmlns="http://www.w3.org/2000/svg" viewBox="0 0 114.61 112.75"><title>Logo</title><g id="Layer_2" fill="white" stroke="white" data-name="Layer 2"><g id="Capa_1" fill="white" stroke="white" data-name="Capa 1"><path fill="white" stroke="white" d="M64.43,75.41l7.39,10.32A65.87,65.87,0,0,0,54.7,106.1a64.61,64.61,0,0,0-3,6.29c23.22,2.55,46.75-8.43,58.25-29.66A53.07,53.07,0,0,0,114.61,71a69.6,69.6,0,0,0-37,10.63L70.2,71.19A18.89,18.89,0,0,0,68.59,43l4.67-7.59a69.35,69.35,0,0,0,41.26,6.38A56.58,56.58,0,0,0,85.37,6.42,60,60,0,0,0,41.64,2.36,66.5,66.5,0,0,0,67,31.91l-4.65,7.57a20.53,20.53,0,0,0-25,9.23,19.38,19.38,0,0,0-1.85,5.22L24.1,54a64.4,64.4,0,0,0-12-31.91,58.94,58.94,0,0,0-5.42,8.13C-4.89,51.5-.88,76.68,14.58,93.75c.74-1.11,1.41-2.23,2.07-3.38A64.55,64.55,0,0,0,24.39,61l10.9-.08a19.7,19.7,0,0,0,10.6,14.44A20.72,20.72,0,0,0,64.43,75.41Z"/></g></g></svg>